ffmpeg started on 2025-05-06 at 10:03:18
Report written to "D:\Convert\FFMetrics\reports\ssim_report-6.txt"
Log level: 32
Command line:
ffmpeg -hide_banner -nostdin -i "G:\\\xc0\xed\xe8\xec\xe5\\\xce\xed\xe3\xee\xe8\xed\xe3\xe8\\!_35_\xcb\xe5\xf2\xee_2024\\JamClub\\\xc1\xe0\xf1\xed\xff\\[JAM_CLUB]_The_Fable_19_[1080p][RUS][DUB]_HEVC.mkv" -i "G:\\\xc0\xed\xe8\xec\xe5\\\xce\xed\xe3\xee\xe8\xed\xe3\xe8\\!_35_\xcb\xe5\xf2\xee_2024\\JamClub\\\xc1\xe0\xf1\xed\xff\\[JAM_CLUB]_The_Fable_19_[1080p][RUS][DUB].mp4" -lavfi "[0:v]settb=AVTB,setpts=PTS-STARTPTS,format=pix_fmts=yuv420p10,fps=24000/1001,scale=1920:1080:flags=bicubic[main];[1:v]settb=AVTB,setpts=PTS-STARTPTS,format=pix_fmts=yuv420p,fps=24000/1001,scale=1920:1080:flags=bicubic[ref];[main][ref]ssim=eof_action=endall:stats_file='D\\:/Convert/FFMetrics/logs/ssim_logfile-6.txt'" -f null -
Input #0, matroska,webm, from 'G:\Аниме\Онгоинги\!_35_Лето_2024\JamClub\Басня\[JAM_CLUB]_The_Fable_19_[1080p][RUS][DUB]_HEVC.mkv':
  Metadata:
    COMPATIBLE_BRANDS: isomiso2avc1mp41
    MAJOR_BRAND     : isom
    MINOR_VERSION   : 512
    ENCODER         : Lavf61.7.100
  Duration: 00:23:14.33, start: -0.001000, bitrate: 948 kb/s
  Stream #0:0: Video: hevc (Main 10), yuv420p10le(tv, bt709, progressive), 1920x1080 [SAR 1:1 DAR 16:9], 23.98 fps, 23.98 tbr, 1k tbn (default)
      Metadata:
        HANDLER_NAME    : VideoHandler
        VENDOR_ID       : [0][0][0][0]
        ENCODER         : Lavc61.19.100 libx265
        BPS             : 749578
        DURATION        : 00:23:14.184708333
        NUMBER_OF_FRAMES: 33427
        NUMBER_OF_BYTES : 130631254
        _STATISTICS_WRITING_APP: mkvpropedit v66.0.0 ('Josie') 64-bit
        _STATISTICS_WRITING_DATE_UTC: 2025-05-05 15:26:14
        _STATISTICS_TAGS: BPS DURATION NUMBER_OF_FRAMES NUMBER_OF_BYTES
  Stream #0:1(eng): Audio: aac (LC), 48000 Hz, stereo, fltp (default)
      Metadata:
        HANDLER_NAME    : SoundHandler
        VENDOR_ID       : [0][0][0][0]
        ENCODER         : Lavc61.19.100 aac
        BPS             : 195392
        DURATION        : 00:23:14.285000000
        NUMBER_OF_FRAMES: 65358
        NUMBER_OF_BYTES : 34054175
        _STATISTICS_WRITING_APP: mkvpropedit v66.0.0 ('Josie') 64-bit
        _STATISTICS_WRITING_DATE_UTC: 2025-05-05 15:26:14
        _STATISTICS_TAGS: BPS DURATION NUMBER_OF_FRAMES NUMBER_OF_BYTES
Input #1, mov,mp4,m4a,3gp,3g2,mj2, from 'G:\Аниме\Онгоинги\!_35_Лето_2024\JamClub\Басня\[JAM_CLUB]_The_Fable_19_[1080p][RUS][DUB].mp4':
  Metadata:
    major_brand     : isom
    minor_version   : 512
    compatible_brands: isomiso2avc1mp41
    encoder         : Lavf60.16.100
  Duration: 00:23:14.31, start: 0.000000, bitrate: 3234 kb/s
  Stream #1:0[0x1](und): Video: h264 (High) (avc1 / 0x31637661), yuv420p(progressive), 1920x1080, 3036 kb/s, 23.98 fps, 23.98 tbr, 90k tbn (default)
      Metadata:
        handler_name    : VideoHandler
        vendor_id       : [0][0][0][0]
  Stream #1:1[0x2](eng): Audio: aac (LC) (mp4a / 0x6134706D), 48000 Hz, stereo, fltp, 191 kb/s (default)
      Metadata:
        handler_name    : SoundHandler
        vendor_id       : [0][0][0][0]
Stream mapping:
  Stream #0:0 (hevc) -> settb:default
  Stream #1:0 (h264) -> settb:default
  ssim:default -> Stream #0:0 (wrapped_avframe)
  Stream #0:1 -> #0:1 (aac (native) -> pcm_s16le (native))
Output #0, null, to 'pipe:':
  Metadata:
    COMPATIBLE_BRANDS: isomiso2avc1mp41
    MAJOR_BRAND     : isom
    MINOR_VERSION   : 512
    encoder         : Lavf61.7.100
  Stream #0:0: Video: wrapped_avframe, yuv420p10le(tv, bt709, progressive), 1920x1080 [SAR 1:1 DAR 16:9], q=2-31, 200 kb/s, 23.98 fps, 23.98 tbn
      Metadata:
        encoder         : Lavc61.19.100 wrapped_avframe
  Stream #0:1(eng): Audio: pcm_s16le, 48000 Hz, stereo, s16, 1536 kb/s (default)
      Metadata:
        HANDLER_NAME    : SoundHandler
        VENDOR_ID       : [0][0][0][0]
        _STATISTICS_TAGS: BPS DURATION NUMBER_OF_FRAMES NUMBER_OF_BYTES
        BPS             : 195392
        DURATION        : 00:23:14.285000000
        NUMBER_OF_FRAMES: 65358
        NUMBER_OF_BYTES : 34054175
        _STATISTICS_WRITING_APP: mkvpropedit v66.0.0 ('Josie') 64-bit
        _STATISTICS_WRITING_DATE_UTC: 2025-05-05 15:26:14
        encoder         : Lavc61.19.100 pcm_s16le
frame=  118 fps=0.0 q=-0.0 size=N/A time=00:00:04.92 bitrate=N/A speed=9.46x    frame=  269 fps=262 q=-0.0 size=N/A time=00:00:11.21 bitrate=N/A speed=10.9x    frame=  456 fps=294 q=-0.0 size=N/A time=00:00:19.01 bitrate=N/A speed=12.3x    frame=  637 fps=310 q=-0.0 size=N/A time=00:00:26.56 bitrate=N/A speed=12.9x    frame=  768 fps=298 q=-0.0 size=N/A time=00:00:32.03 bitrate=N/A speed=12.4x    frame=  912 fps=296 q=-0.0 size=N/A time=00:00:38.03 bitrate=N/A speed=12.3x    frame= 1075 fps=298 q=-0.0 size=N/A time=00:00:44.83 bitrate=N/A speed=12.4x    frame= 1224 fps=297 q=-0.0 size=N/A time=00:00:51.05 bitrate=N/A speed=12.4x    frame= 1363 fps=294 q=-0.0 size=N/A time=00:00:56.84 bitrate=N/A speed=12.3x    frame= 1516 fps=294 q=-0.0 size=N/A time=00:01:03.22 bitrate=N/A speed=12.3x    frame= 1659 fps=293 q=-0.0 size=N/A time=00:01:09.19 bitrate=N/A speed=12.2x    frame= 1785 fps=289 q=-0.0 size=N/A time=00:01:14.44 bitrate=N/A speed=  12x    frame= 1934 fps=288 q=-0.0 size=N/A time=00:01:20.66 bitrate=N/A speed=  12x    frame= 2097 fps=290 q=-0.0 size=N/A time=00:01:27.46 bitrate=N/A speed=12.1x    frame= 2267 fps=293 q=-0.0 size=N/A time=00:01:34.55 bitrate=N/A speed=12.2x    frame= 2476 fps=300 q=-0.0 size=N/A time=00:01:43.26 bitrate=N/A speed=12.5x    frame= 2723 fps=310 q=-0.0 size=N/A time=00:01:53.57 bitrate=N/A speed=12.9x    frame= 2957 fps=318 q=-0.0 size=N/A time=00:02:03.33 bitrate=N/A speed=13.3x    frame= 3216 fps=327 q=-0.0 size=N/A time=00:02:14.13 bitrate=N/A speed=13.6x    frame= 3475 fps=336 q=-0.0 size=N/A time=00:02:24.93 bitrate=N/A speed=  14x    frame= 3736 fps=344 q=-0.0 size=N/A time=00:02:35.82 bitrate=N/A speed=14.3x    frame= 3998 fps=351 q=-0.0 size=N/A time=00:02:46.74 bitrate=N/A speed=14.6x    frame= 4272 fps=358 q=-0.0 size=N/A time=00:02:58.17 bitrate=N/A speed=14.9x    frame= 4521 fps=364 q=-0.0 size=N/A time=00:03:08.56 bitrate=N/A speed=15.2x    frame= 4782 fps=369 q=-0.0 size=N/A time=00:03:19.44 bitrate=N/A speed=15.4x    frame= 5053 fps=375 q=-0.0 size=N/A time=00:03:30.75 bitrate=N/A speed=15.6x    frame= 5315 fps=380 q=-0.0 size=N/A time=00:03:41.67 bitrate=N/A speed=15.9x    frame= 5589 fps=385 q=-0.0 size=N/A time=00:03:53.10 bitrate=N/A speed=16.1x    frame= 5848 fps=390 q=-0.0 size=N/A time=00:04:03.91 bitrate=N/A speed=16.3x    frame= 6119 fps=394 q=-0.0 size=N/A time=00:04:15.21 bitrate=N/A speed=16.4x    frame= 6380 fps=398 q=-0.0 size=N/A time=00:04:26.09 bitrate=N/A speed=16.6x    frame= 6649 fps=401 q=-0.0 size=N/A time=00:04:37.31 bitrate=N/A speed=16.7x    frame= 6883 fps=403 q=-0.0 size=N/A time=00:04:47.07 bitrate=N/A speed=16.8x    frame= 7153 fps=407 q=-0.0 size=N/A time=00:04:58.33 bitrate=N/A speed=  17x    frame= 7377 fps=408 q=-0.0 size=N/A time=00:05:07.68 bitrate=N/A speed=  17x    frame= 7612 fps=409 q=-0.0 size=N/A time=00:05:17.48 bitrate=N/A speed=  17x    frame= 7836 fps=409 q=-0.0 size=N/A time=00:05:26.82 bitrate=N/A speed=17.1x    frame= 8079 fps=411 q=-0.0 size=N/A time=00:05:36.96 bitrate=N/A speed=17.1x    frame= 8325 fps=412 q=-0.0 size=N/A time=00:05:47.22 bitrate=N/A speed=17.2x    frame= 8546 fps=413 q=-0.0 size=N/A time=00:05:56.43 bitrate=N/A speed=17.2x    frame= 8787 fps=414 q=-0.0 size=N/A time=00:06:06.49 bitrate=N/A speed=17.3x    frame= 9013 fps=415 q=-0.0 size=N/A time=00:06:15.91 bitrate=N/A speed=17.3x    frame= 9275 fps=417 q=-0.0 size=N/A time=00:06:26.84 bitrate=N/A speed=17.4x    frame= 9531 fps=419 q=-0.0 size=N/A time=00:06:37.52 bitrate=N/A speed=17.5x    frame= 9806 fps=421 q=-0.0 size=N/A time=00:06:48.99 bitrate=N/A speed=17.6x    frame=10056 fps=423 q=-0.0 size=N/A time=00:06:59.41 bitrate=N/A speed=17.6x    frame=10295 fps=424 q=-0.0 size=N/A time=00:07:09.38 bitrate=N/A speed=17.7x    frame=10546 fps=425 q=-0.0 size=N/A time=00:07:19.85 bitrate=N/A speed=17.7x    frame=10805 fps=426 q=-0.0 size=N/A time=00:07:30.65 bitrate=N/A speed=17.8x    frame=11053 fps=428 q=-0.0 size=N/A time=00:07:41.00 bitrate=N/A speed=17.8x    frame=11318 fps=429 q=-0.0 size=N/A time=00:07:52.05 bitrate=N/A speed=17.9x    frame=11559 fps=430 q=-0.0 size=N/A time=00:08:02.10 bitrate=N/A speed=17.9x    frame=11817 fps=431 q=-0.0 size=N/A time=00:08:12.86 bitrate=N/A speed=  18x    frame=12058 fps=432 q=-0.0 size=N/A time=00:08:22.91 bitrate=N/A speed=  18x    frame=12313 fps=433 q=-0.0 size=N/A time=00:08:33.55 bitrate=N/A speed=18.1x    frame=12562 fps=434 q=-0.0 size=N/A time=00:08:43.94 bitrate=N/A speed=18.1x    frame=12825 fps=435 q=-0.0 size=N/A time=00:08:54.90 bitrate=N/A speed=18.2x    frame=13093 fps=437 q=-0.0 size=N/A time=00:09:06.08 bitrate=N/A speed=18.2x    frame=13351 fps=438 q=-0.0 size=N/A time=00:09:16.84 bitrate=N/A speed=18.3x    frame=13598 fps=439 q=-0.0 size=N/A time=00:09:27.14 bitrate=N/A speed=18.3x    frame=13819 fps=438 q=-0.0 size=N/A time=00:09:36.36 bitrate=N/A speed=18.3x    frame=14033 fps=438 q=-0.0 size=N/A time=00:09:45.29 bitrate=N/A speed=18.3x    frame=14279 fps=438 q=-0.0 size=N/A time=00:09:55.55 bitrate=N/A speed=18.3x    frame=14535 fps=439 q=-0.0 size=N/A time=00:10:06.23 bitrate=N/A speed=18.3x    frame=14773 fps=439 q=-0.0 size=N/A time=00:10:16.15 bitrate=N/A speed=18.3x    frame=15025 fps=440 q=-0.0 size=N/A time=00:10:26.66 bitrate=N/A speed=18.4x    frame=15266 fps=441 q=-0.0 size=N/A time=00:10:36.71 bitrate=N/A speed=18.4x    frame=15505 fps=441 q=-0.0 size=N/A time=00:10:46.68 bitrate=N/A speed=18.4x    frame=15753 fps=441 q=-0.0 size=N/A time=00:10:57.03 bitrate=N/A speed=18.4x    frame=16013 fps=442 q=-0.0 size=N/A time=00:11:07.87 bitrate=N/A speed=18.4x    frame=16256 fps=443 q=-0.0 size=N/A time=00:11:18.01 bitrate=N/A speed=18.5x    frame=16463 fps=442 q=-0.0 size=N/A time=00:11:26.64 bitrate=N/A speed=18.4x    frame=16693 fps=442 q=-0.0 size=N/A time=00:11:36.23 bitrate=N/A speed=18.4x    frame=16940 fps=443 q=-0.0 size=N/A time=00:11:46.53 bitrate=N/A speed=18.5x    frame=17184 fps=443 q=-0.0 size=N/A time=00:11:56.71 bitrate=N/A speed=18.5x    frame=17433 fps=444 q=-0.0 size=N/A time=00:12:07.10 bitrate=N/A speed=18.5x    frame=17684 fps=444 q=-0.0 size=N/A time=00:12:17.57 bitrate=N/A speed=18.5x    frame=17943 fps=445 q=-0.0 size=N/A time=00:12:28.37 bitrate=N/A speed=18.6x    frame=18210 fps=446 q=-0.0 size=N/A time=00:12:39.50 bitrate=N/A speed=18.6x    frame=18460 fps=446 q=-0.0 size=N/A time=00:12:49.93 bitrate=N/A speed=18.6x    frame=18711 fps=447 q=-0.0 size=N/A time=00:13:00.40 bitrate=N/A speed=18.6x    frame=18972 fps=448 q=-0.0 size=N/A time=00:13:11.29 bitrate=N/A speed=18.7x    frame=19210 fps=448 q=-0.0 size=N/A time=00:13:21.21 bitrate=N/A speed=18.7x    frame=19449 fps=448 q=-0.0 size=N/A time=00:13:31.18 bitrate=N/A speed=18.7x    frame=19677 fps=448 q=-0.0 size=N/A time=00:13:40.69 bitrate=N/A speed=18.7x    frame=19941 fps=449 q=-0.0 size=N/A time=00:13:51.70 bitrate=N/A speed=18.7x    frame=20200 fps=449 q=-0.0 size=N/A time=00:14:02.50 bitrate=N/A speed=18.7x    frame=20445 fps=450 q=-0.0 size=N/A time=00:14:12.72 bitrate=N/A speed=18.8x    frame=20706 fps=450 q=-0.0 size=N/A time=00:14:23.61 bitrate=N/A speed=18.8x    frame=20963 fps=451 q=-0.0 size=N/A time=00:14:34.33 bitrate=N/A speed=18.8x    frame=21214 fps=451 q=-0.0 size=N/A time=00:14:44.80 bitrate=N/A speed=18.8x    frame=21476 fps=451 q=-0.0 size=N/A time=00:14:55.72 bitrate=N/A speed=18.8x    frame=21712 fps=452 q=-0.0 size=N/A time=00:15:05.57 bitrate=N/A speed=18.8x    frame=21955 fps=452 q=-0.0 size=N/A time=00:15:15.70 bitrate=N/A speed=18.8x    frame=22215 fps=452 q=-0.0 size=N/A time=00:15:26.55 bitrate=N/A speed=18.9x    frame=22478 fps=453 q=-0.0 size=N/A time=00:15:37.51 bitrate=N/A speed=18.9x    frame=22744 fps=454 q=-0.0 size=N/A time=00:15:48.61 bitrate=N/A speed=18.9x    frame=22990 fps=454 q=-0.0 size=N/A time=00:15:58.87 bitrate=N/A speed=18.9x    frame=23248 fps=454 q=-0.0 size=N/A time=00:16:09.63 bitrate=N/A speed=18.9x    frame=23508 fps=455 q=-0.0 size=N/A time=00:16:20.47 bitrate=N/A speed=  19x    frame=23768 fps=455 q=-0.0 size=N/A time=00:16:31.32 bitrate=N/A speed=  19x    frame=24012 fps=456 q=-0.0 size=N/A time=00:16:41.50 bitrate=N/A speed=  19x    frame=24249 fps=456 q=-0.0 size=N/A time=00:16:51.38 bitrate=N/A speed=  19x    frame=24505 fps=456 q=-0.0 size=N/A time=00:17:02.06 bitrate=N/A speed=  19x    frame=24748 fps=456 q=-0.0 size=N/A time=00:17:12.19 bitrate=N/A speed=  19x    frame=25008 fps=457 q=-0.0 size=N/A time=00:17:23.04 bitrate=N/A speed=  19x    frame=25258 fps=457 q=-0.0 size=N/A time=00:17:33.46 bitrate=N/A speed=19.1x    frame=25509 fps=457 q=-0.0 size=N/A time=00:17:43.93 bitrate=N/A speed=19.1x    frame=25776 fps=458 q=-0.0 size=N/A time=00:17:55.07 bitrate=N/A speed=19.1x    frame=25985 fps=457 q=-0.0 size=N/A time=00:18:03.79 bitrate=N/A speed=19.1x    frame=26195 fps=457 q=-0.0 size=N/A time=00:18:12.54 bitrate=N/A speed=  19x    frame=26429 fps=457 q=-0.0 size=N/A time=00:18:22.30 bitrate=N/A speed=  19x    frame=26635 fps=456 q=-0.0 size=N/A time=00:18:30.90 bitrate=N/A speed=  19x    frame=26897 fps=457 q=-0.0 size=N/A time=00:18:41.82 bitrate=N/A speed=  19x    frame=27162 fps=457 q=-0.0 size=N/A time=00:18:52.88 bitrate=N/A speed=19.1x    frame=27414 fps=457 q=-0.0 size=N/A time=00:19:03.39 bitrate=N/A speed=19.1x    frame=27647 fps=457 q=-0.0 size=N/A time=00:19:13.11 bitrate=N/A speed=19.1x    frame=27885 fps=457 q=-0.0 size=N/A time=00:19:23.03 bitrate=N/A speed=19.1x    frame=28114 fps=457 q=-0.0 size=N/A time=00:19:32.58 bitrate=N/A speed=19.1x    frame=28345 fps=457 q=-0.0 size=N/A time=00:19:42.22 bitrate=N/A speed=19.1x    frame=28612 fps=458 q=-0.0 size=N/A time=00:19:53.35 bitrate=N/A speed=19.1x    frame=28867 fps=458 q=-0.0 size=N/A time=00:20:03.99 bitrate=N/A speed=19.1x    frame=29117 fps=458 q=-0.0 size=N/A time=00:20:14.42 bitrate=N/A speed=19.1x    frame=29369 fps=458 q=-0.0 size=N/A time=00:20:24.93 bitrate=N/A speed=19.1x    frame=29616 fps=459 q=-0.0 size=N/A time=00:20:35.23 bitrate=N/A speed=19.1x    frame=29866 fps=459 q=-0.0 size=N/A time=00:20:45.66 bitrate=N/A speed=19.1x    frame=30137 fps=459 q=-0.0 size=N/A time=00:20:56.96 bitrate=N/A speed=19.2x    frame=30402 fps=460 q=-0.0 size=N/A time=00:21:08.01 bitrate=N/A speed=19.2x    frame=30676 fps=460 q=-0.0 size=N/A time=00:21:19.44 bitrate=N/A speed=19.2x    frame=30936 fps=461 q=-0.0 size=N/A time=00:21:30.28 bitrate=N/A speed=19.2x    frame=31199 fps=461 q=-0.0 size=N/A time=00:21:41.25 bitrate=N/A speed=19.2x    frame=31451 fps=461 q=-0.0 size=N/A time=00:21:51.76 bitrate=N/A speed=19.2x    frame=31688 fps=461 q=-0.0 size=N/A time=00:22:01.65 bitrate=N/A speed=19.2x    frame=31948 fps=462 q=-0.0 size=N/A time=00:22:12.49 bitrate=N/A speed=19.3x    frame=32214 fps=462 q=-0.0 size=N/A time=00:22:23.59 bitrate=N/A speed=19.3x    frame=32495 fps=463 q=-0.0 size=N/A time=00:22:35.31 bitrate=N/A speed=19.3x    frame=32747 fps=463 q=-0.0 size=N/A time=00:22:45.82 bitrate=N/A speed=19.3x    frame=33006 fps=463 q=-0.0 size=N/A time=00:22:56.62 bitrate=N/A speed=19.3x    frame=33259 fps=463 q=-0.0 size=N/A time=00:23:07.17 bitrate=N/A speed=19.3x    [Parsed_ssim_10 @ 0000022e07034fc0] SSIM Y:0.993731 (22.027802) U:0.995445 (23.415500) V:0.995679 (23.643929) All:0.994341 (22.472722)
[out#0/null @ 0000022e066606c0] video:14363KiB audio:261432KiB subtitle:0KiB other streams:0KiB global headers:0KiB muxing overhead: unknown
frame=33427 fps=464 q=-0.0 Lsize=N/A time=00:23:14.18 bitrate=N/A speed=19.3x    
